<svg baseProfile="full" xmlns="http://www.w3.org/2000/svg" height="18" width="18"><path fill="rgb( 255, 255, 255 )" d="M16.553 1.995h-2.089l-1.93 10.617c-.044.238-.252.411-.494.411h-7.02c-.277 0-.502-.224-.502-.501s.225-.501.502-.501h6.602l.364-2.005h-7.969c-.202 0-.385-.122-.463-.309l-2.507-6.015c-.065-.155-.048-.332.045-.471.094-.139.25-.223.418-.223h11.752l.29-1.594c.044-.238.252-.411.494-.411h2.507c.277 0 .502.224.502.501s-.225.501-.502.501zm-6.519 7.018h2.134l.366-2.005h-2.5v2.005zm-4.011-5.013h-3.761l.836 2.005h2.925v-2.005zm0 3.008h-2.507l.835 2.005h1.672v-2.005zm3.008-3.008h-2.005v2.005h2.005v-2.005zm0 3.008h-2.005v2.005h2.005v-2.005zm1.003-3.008v2.005h2.682l.364-2.005h-3.046zm-3.51 10.026c.831 0 1.505.672 1.505 1.504 0 .831-.674 1.504-1.505 1.504-.83 0-1.504-.673-1.504-1.504 0-.832.674-1.504 1.504-1.504zm4.012 0c.831 0 1.504.672 1.504 1.504 0 .831-.673 1.504-1.504 1.504-.832 0-1.505-.673-1.505-1.504 0-.832.673-1.504 1.505-1.504z"/></svg>