<svg baseProfile="full" xmlns="http://www.w3.org/2000/svg" height="14" width="18"><path opacity=".302" fill="rgb( 0, 89, 158 )" d="M17.931 12.067c0 1.047-.856 1.896-1.912 1.896h-14.107c-1.056 0-1.912-.849-1.912-1.896v-10.155c0-1.047.856-1.896 1.912-1.896h14.107c1.056 0 1.912.849 1.912 1.896v10.155zm-.908-10.285c0-.452-.369-.819-.825-.819h-14.394c-.456 0-.826.367-.826.819v10.362c0 .452.37.819.826.819h14.394c.456 0 .826-.367.826-.819l-.001-10.362zm-5.519 5.216l.038.023 2.035 2.788c.12.165.108.414-.027.558-.059.063-.133.095-.206.097-.093.002-.187-.044-.255-.135l-2.035-2.789-.019-.066-1.78 1.806c-.058.06-.129.09-.201.092-.073.002-.147-.026-.208-.083l-1.865-1.745-1.57 2.259c-.063.09-.151.137-.241.139-.077.002-.155-.028-.219-.094-.139-.141-.157-.39-.042-.556l1.552-2.234-3.222-3.015c-.143-.134-.171-.382-.061-.554.109-.17.314-.202.457-.068l5.398 5.049 5.008-5.081c.138-.14.344-.116.46.051.117.168.1.417-.037.556l-2.96 3.002zm-7.265 3.322c.111-.17.315-.198.458-.062.142.136.167.385.056.555l-.138.21c-.062.095-.153.146-.247.148-.073.002-.148-.026-.211-.086-.142-.136-.167-.384-.056-.555l.138-.21z"/></svg>