<svg baseProfile="full" xmlns="http://www.w3.org/2000/svg" height="41" width="41"><path fill="rgb( 0, 0, 0 )" d="M13.628 6.25c5.785-5.784 15.198-5.784 20.983 0 5.782 5.785 5.782 15.197 0 20.982-5.152 5.15-13.174 5.701-18.954 1.68-.123.575-.402 1.124-.847 1.572l-8.425 8.421c-1.226 1.226-3.209 1.226-4.432 0-1.225-1.224-1.225-3.207 0-4.432l8.424-8.424c.446-.445.995-.724 1.571-.844-4.024-5.783-3.471-13.802 1.68-18.955zm2.659 18.323c4.319 4.317 11.346 4.317 15.664 0 4.316-4.319 4.316-11.344 0-15.662-4.318-4.318-11.345-4.318-15.664 0-4.318 4.318-4.318 11.343 0 15.662z"/></svg>