<svg baseProfile="full" xmlns="http://www.w3.org/2000/svg" height="14" width="15"><path opacity=".302" fill="rgb( 0, 89, 158 )" d="M9.404 2.987c-.132 0-.251.05-.345.129l-.005-.005-4.217 4.207c-.478.478-.674.944-.677 1.61 0 .521.193.99.542 1.32.36.34.861.52 1.448.52h.012c.611-.002 1.183-.243 1.61-.677l4.893-4.896c1.24-1.24 1.272-3.009.078-4.204-.593-.593-1.382-.92-2.222-.92-.839 0-1.628.327-2.22.92l-6.129 6.133c-1.563 1.564-1.563 4.108 0 5.672.755.756 1.762 1.173 2.833 1.173 1.072 0 2.078-.417 2.834-1.173l6.345-6.373s.14-.137.14-.369c0-.297-.241-.539-.538-.539-.141 0-.268.056-.364.145l-.002-.001-6.345 6.372c-.552.553-1.287.857-2.07.857-.782 0-1.517-.304-2.069-.857-1.141-1.142-1.141-3 0-4.142l6.129-6.133c.388-.389.906-.603 1.456-.603.551 0 1.069.214 1.458.603.387.388.582.849.563 1.333-.019.476-.24.94-.641 1.341l-4.904 4.907c-.224.225-.522.349-.838.35-.603 0-.918-.38-.918-.755.001-.316.125-.614.35-.839l4.227-4.217-.004-.005c.079-.093.128-.213.128-.345 0-.298-.241-.539-.538-.539z"/></svg>