<svg baseProfile="full" xmlns="http://www.w3.org/2000/svg" height="17" width="14"><path opacity=".302" fill="rgb( 0, 89, 158 )" d="M13.931 3.738v11.329c0 1.047-.856 1.896-1.912 1.896h-10.107c-1.056 0-1.912-.849-1.912-1.896v-13.155c0-1.047.856-1.896 1.912-1.896h8.509l.079-.016.079.016h.257c1.056 0 3.095 2.063 3.095 3.11v.136c.04.072.069.15.069.238l-.069.238zm-.908-.742c0-.452-1.552-2.033-2.008-2.033h-.015v2.037h2.023v-.004zm0 1.004h-2.523c-.276 0-.5-.224-.5-.5v-2.537h-8.196c-.456 0-.825.367-.825.819v13.362c0 .452.369.819.825.819h10.394c.456 0 .826-.367.826-.819l-.001-11.144zm-2.523 8h-7c-.276 0-.5-.224-.5-.5s.224-.5.5-.5h7c.276 0 .5.224.5.5s-.224.5-.5.5zm0-2h-7c-.276 0-.5-.224-.5-.5s.224-.5.5-.5h7c.276 0 .5.224.5.5s-.224.5-.5.5zm0-2h-7c-.276 0-.5-.224-.5-.5s.224-.5.5-.5h7c.276 0 .5.224.5.5s-.224.5-.5.5zm-2-2h-5c-.276 0-.5-.224-.5-.5s.224-.5.5-.5h5c.276 0 .5.224.5.5s-.224.5-.5.5z"/></svg>