<svg baseProfile="full" xmlns="http://www.w3.org/2000/svg" height="19" width="14"><path opacity=".302" fill="rgb( 0, 89, 158 )" d="M13.971 16.837c0 2.007-4.965 2.163-6.486 2.163s-6.486-.156-6.486-2.163c0-2.642 1.604-5.028 3.961-6.051-1.157-1.579-1.877-3.943-1.877-5.448 0-2.449 1.985-4.442 4.424-4.442 2.44 0 4.425 1.993 4.425 4.442 0 1.503-.719 3.863-1.873 5.441 2.328 1.038 3.912 3.424 3.912 6.058zm-6.464-14.859c-1.845 0-3.347 1.507-3.347 3.36 0 2.1 1.721 6.003 3.347 6.003 1.627 0 3.347-3.903 3.347-6.003 0-1.853-1.501-3.36-3.347-3.36zm1.889 9.675c-.576.541-1.224.824-1.889.824-.68 0-1.331-.278-1.9-.809-2.094.793-3.531 2.873-3.531 5.169 0 .298 1.663 1.081 5.409 1.081 3.745 0 5.409-.783 5.409-1.081 0-2.295-1.423-4.381-3.498-5.184zm-1.733-8.343c-1.184 0-2.147.967-2.147 2.156 0 .149-.121.27-.27.27-.149 0-.269-.121-.269-.27 0-1.487 1.205-2.697 2.686-2.697.149 0 .269.121.269.27 0 .15-.12.271-.269.271zm-2.134 3.002c.052.051.081.122.081.192 0 .073-.029.141-.081.192-.048.052-.118.078-.188.078-.073 0-.14-.027-.191-.078-.051-.051-.078-.122-.078-.192s.027-.141.078-.192c.099-.1.28-.1.379 0z"/></svg>