<svg baseProfile="full" xmlns="http://www.w3.org/2000/svg" height="18" width="18"><path opacity=".302" fill="rgb( 0, 89, 158 )" d="M17.934 11.148c0 1.022-.831 1.85-1.856 1.85h-1.088v2.133c-.001 1.031-.933 1.87-1.956 1.87h-11.279c-1.023 0-1.755-.839-1.755-1.87v-9.376c0-1.008.732-1.829 1.755-1.829h2.67c.21-1.974 1.871-3.523 3.906-3.523s3.696 1.549 3.906 3.523h.797c1.023 0 1.956.821 1.956 1.829v2.44h1.089c1.024 0 1.855.828 1.855 1.849v1.104zm-9.603-9.677c-1.445 0-2.633 1.07-2.836 2.455h5.672c-.203-1.385-1.391-2.455-2.836-2.455zm5.588 4.284c0-.427-.445-.762-.885-.762h-11.279c-.44 0-.684.335-.684.762v9.376c0 .435.259.802.684.802h11.279c.425 0 .885-.367.885-.802v-2.133h-1.624c-1.025 0-1.856-.828-1.856-1.85v-1.104c0-1.021.831-1.849 1.856-1.849h1.624v-2.44zm2.944 4.289c0-.431-.351-.782-.785-.782h-3.783c-.434 0-.785.351-.785.782v1.104c0 .432.351.783.785.783h3.784c.433 0 .784-.351.784-.783v-1.104zm-4.004 1.044c-.283 0-.513-.229-.513-.511 0-.283.23-.512.513-.512.284 0 .513.229.513.512 0 .282-.229.511-.513.511zm-8.142 4.045h-.267c-.148 0-.268-.119-.268-.267 0-.147.12-.267.268-.267h.267c.148 0 .268.12.268.267 0 .148-.12.267-.268.267zm-1.306-.01c-.875 0-1.537-.715-1.537-1.593v-4.535c0-.147.119-.266.267-.266.148 0 .268.119.268.266v4.535c0 .584.422 1.059 1.002 1.059.148 0 .268.119.268.267 0 .148-.12.267-.268.267z"/></svg>